# xmcd CD database file
#
# Track frame offsets:
#	151
#	23549
#	42479
#	60910
#	83100
#	102407
#	121241
#	137478
#	170008
#	193878
#	212145
#	230491
#
# Disc length: 3372 seconds
#
# Revision: 0
# Processed by: cddbd v1.5.1PL0 Copyright (c) Steve Scherf et al.
# Submitted via: CDex 1.51
#
DISCID=a00d2a0c
DTITLE=Various Artist - 2004 Iowa Jazz Championships
DYEAR=2004
DGENRE=Jazz
TTITLE0=Harlan (Night Performance) - Count Bubba
TTITLE1=Harlan (Night Performance) - Goodbye Pork Pie Hat
TTITLE2=Harlan (Night Performance) - Dizzying
TTITLE3=Harlan (Night Performance) - Festival
TTITLE4=Independence (Night Performance) - Happy Go-Lucky Local
TTITLE5=Independence (Night Performance) - Of Courage and Spirit
TTITLE6=Independence (Night Performance) - Jack the Bear
TTITLE7=Independence (Night Performance) - Two Seconds to Midnight
TTITLE8=Harlan (Day Performance) - Count Bubba
TTITLE9=Harlan (Day Performance) - Goodbye Pork Pie Hat
TTITLE10=Harlan (Day Performance) - Dizzying
TTITLE11=Harlan (Day Performance) - Festival
EXTD=YEAR: 2004
EXTT0=
EXTT1=
EXTT2=
EXTT3=
EXTT4=
EXTT5=
EXTT6=
EXTT7=
EXTT8=
EXTT9=
EXTT10=
EXTT11=
PLAYORDER=
